<mxfile host="app.diagrams.net" modified="2021-04-27T20:29:09.891Z" agent="5.0 (Windows)" etag="RCsRYK20nXiql5gwZGMX" version="14.5.10" type="github">
  <diagram id="P7L_tcnLu_Fz38Bn6goS" name="Page-1">
    <mxGraphModel dx="868" dy="432" grid="1" gridSize="10" guides="1" tooltips="1" connect="1" arrows="1" fold="1" page="1" pageScale="1" pageWidth="850" pageHeight="1100" math="0" shadow="0">
      <root>
        <mxCell id="0" />
        <mxCell id="1" parent="0" />
        <mxCell id="BeYQRY-4uXbT6F4zhxZK-2" value="&lt;pre style=&quot;font-size: 19px&quot;&gt;&lt;font style=&quot;font-size: 19px&quot; face=&quot;Times New Roman&quot;&gt;Input Image&lt;/font&gt;&lt;/pre&gt;" style="rounded=1;whiteSpace=wrap;html=1;" vertex="1" parent="1">
          <mxGeometry x="50" y="90" width="110" height="50" as="geometry" />
        </mxCell>
        <mxCell id="BeYQRY-4uXbT6F4zhxZK-3" value="" style="shape=flexArrow;endArrow=classic;html=1;width=10;startSize=4.67;endSize=4.67;" edge="1" parent="1">
          <mxGeometry width="50" height="50" relative="1" as="geometry">
            <mxPoint x="160" y="110" as="sourcePoint" />
            <mxPoint x="200" y="110" as="targetPoint" />
          </mxGeometry>
        </mxCell>
        <mxCell id="BeYQRY-4uXbT6F4zhxZK-4" value="&lt;font style=&quot;font-size: 18px&quot; face=&quot;Times New Roman&quot;&gt;RGB to Gray&lt;/font&gt;" style="rounded=1;whiteSpace=wrap;html=1;" vertex="1" parent="1">
          <mxGeometry x="200" y="80" width="100" height="60" as="geometry" />
        </mxCell>
        <mxCell id="BeYQRY-4uXbT6F4zhxZK-5" value="&lt;font style=&quot;font-size: 16px&quot; face=&quot;Times New Roman&quot;&gt;Split into Train and Test&lt;br&gt;&lt;/font&gt;" style="rounded=1;whiteSpace=wrap;html=1;" vertex="1" parent="1">
          <mxGeometry x="340" y="80" width="100" height="60" as="geometry" />
        </mxCell>
        <mxCell id="BeYQRY-4uXbT6F4zhxZK-6" value="" style="shape=flexArrow;endArrow=classic;html=1;width=10;startSize=4.67;endSize=4.67;" edge="1" parent="1">
          <mxGeometry width="50" height="50" relative="1" as="geometry">
            <mxPoint x="300" y="109.5" as="sourcePoint" />
            <mxPoint x="340" y="109.5" as="targetPoint" />
          </mxGeometry>
        </mxCell>
        <mxCell id="BeYQRY-4uXbT6F4zhxZK-8" value="" style="shape=flexArrow;endArrow=classic;html=1;width=10;startSize=4.67;endSize=4.67;" edge="1" parent="1">
          <mxGeometry width="50" height="50" relative="1" as="geometry">
            <mxPoint x="440" y="109.5" as="sourcePoint" />
            <mxPoint x="480" y="109.5" as="targetPoint" />
            <Array as="points">
              <mxPoint x="470" y="110" />
            </Array>
          </mxGeometry>
        </mxCell>
        <mxCell id="BeYQRY-4uXbT6F4zhxZK-9" value="&lt;font style=&quot;font-size: 16px&quot;&gt;CNN Model&lt;br&gt;&lt;/font&gt;" style="rounded=1;whiteSpace=wrap;html=1;" vertex="1" parent="1">
          <mxGeometry x="480" y="80" width="100" height="60" as="geometry" />
        </mxCell>
        <mxCell id="BeYQRY-4uXbT6F4zhxZK-10" value="&lt;font style=&quot;font-size: 19px&quot;&gt;Accuracy&lt;/font&gt;" style="rounded=1;whiteSpace=wrap;html=1;" vertex="1" parent="1">
          <mxGeometry x="620" y="80" width="100" height="60" as="geometry" />
        </mxCell>
        <mxCell id="BeYQRY-4uXbT6F4zhxZK-12" value="" style="shape=flexArrow;endArrow=classic;html=1;width=10;startSize=4.67;endSize=4.67;" edge="1" parent="1">
          <mxGeometry width="50" height="50" relative="1" as="geometry">
            <mxPoint x="580" y="110" as="sourcePoint" />
            <mxPoint x="620" y="110" as="targetPoint" />
          </mxGeometry>
        </mxCell>
      </root>
    </mxGraphModel>
  </diagram>
</mxfile>
